<svg version="1.1" id="Layer_1" xmlns="http://www.w3.org/2000/svg"
	xmlns:xlink="http://www.w3.org/1999/xlink" x="0px" y="0px"
	width="100%" viewBox="455 375 700 150" xml:space="preserve">
<path fill="none" opacity="0" stroke="none" 
	d="
M466.077484,454.743530 
	C470.544525,462.202118 475.011536,469.660675 479.636230,477.870789 
	C488.054749,492.258362 496.473297,506.645935 505.221863,521.750305 
	C505.936432,522.098999 506.652283,522.754150 507.365448,522.751282 
	C522.383118,522.690369 537.400513,522.555237 553.272034,522.665527 
	C563.925415,522.705811 574.581726,522.884705 585.229736,522.664612 
	C587.257263,522.622681 589.252319,521.003723 591.860718,519.848938 
	C592.657837,518.795227 593.571411,517.809692 594.234375,516.677490 
	C602.798157,502.053467 611.362122,487.429291 619.834778,472.752472 
	C621.643616,469.619110 623.088074,466.275452 625.336121,462.703217 
	C626.554138,460.758911 627.559509,458.633606 629.031128,456.905273 
	C632.947693,452.305481 631.931213,448.014618 629.009949,443.374237 
	C623.932617,435.308929 619.135803,427.067078 614.110413,418.178864 
	C612.358582,414.805847 610.797302,411.315399 608.808655,408.088287 
	C606.059021,403.626312 602.987488,399.362701 599.945312,394.252411 
	C598.602539,387.524658 595.306580,382.141449 588.831116,377.999298 
	C587.259521,377.682281 585.690491,377.107056 584.115906,377.091339 
	C575.704102,377.007294 567.290955,377.063019 557.963074,377.027832 
	C545.686523,377.039032 533.409912,377.050232 520.188293,376.954742 
	C510.713776,375.845062 503.065369,377.288666 498.695984,387.639801 
	C494.615906,397.305603 488.881195,406.272919 483.227386,415.864929 
	C477.181183,426.212219 470.964325,436.467072 465.260986,446.999969 
	C464.337280,448.705872 465.693359,451.646179 466.077484,454.743530 
M845.735352,492.193726 
	C848.247009,490.209320 850.758606,488.224884 853.995972,485.667023 
	C853.995972,498.593445 853.995972,510.520020 853.995972,522.449463 
	C858.846985,522.449463 863.288940,522.449463 868.077271,522.449463 
	C868.077271,489.204376 868.077271,456.209991 868.077271,423.220032 
	C863.223206,423.220032 858.657715,423.220032 854.051758,423.220032 
	C853.870850,426.707825 853.708130,429.845734 853.486694,434.115845 
	C844.945374,422.989258 834.867798,419.244720 822.432007,421.781830 
	C796.821899,427.006592 786.015442,458.194885 799.226990,480.330902 
	C809.137512,496.936005 831.335266,502.173798 845.735352,492.193726 
M1077.312622,490.157532 
	C1085.088135,495.708771 1093.757324,497.972046 1103.247192,497.182220 
	C1118.776855,495.889679 1131.653320,485.408295 1136.416870,470.197784 
	C1140.993042,455.586426 1136.235962,439.550476 1124.367432,429.578491 
	C1112.738159,419.807495 1095.753418,418.027740 1082.254517,425.217163 
	C1058.113525,438.074371 1054.185913,471.853790 1077.312622,490.157532 
M763.439148,471.499969 
	C763.439148,479.430542 763.439148,487.361115 763.439148,495.471313 
	C768.504639,495.471313 772.898682,495.471313 777.535583,495.471313 
	C777.535583,479.054047 778.268799,462.917236 777.288208,446.885254 
	C776.587036,435.422180 770.458008,426.242126 758.821045,422.593842 
	C746.789612,418.821899 735.787109,420.426819 727.389893,431.024200 
	C727.045227,431.459198 726.340881,431.609192 725.329590,432.141907 
	C725.065308,428.865295 724.833557,425.991760 724.599609,423.091003 
	C719.802856,423.091003 715.368286,423.091003 710.880615,423.091003 
	C710.880615,447.413300 710.880615,471.426270 710.880615,495.510864 
	C715.742981,495.510864 720.171082,495.510864 725.071289,495.510864 
	C725.071289,486.578369 724.983215,477.943207 725.100098,469.310822 
	C725.187805,462.835083 724.927612,456.267883 725.915161,449.911194 
	C727.430420,440.157806 735.889587,434.238525 746.285706,434.668243 
	C755.965149,435.068329 762.054871,440.754395 762.992126,451.054443 
	C763.578369,457.496521 763.318359,464.015594 763.439148,471.499969 
M902.192078,455.495636 
	C902.192078,444.718964 902.192078,433.942322 902.192078,423.167694 
	C897.262024,423.167694 892.859497,423.167694 888.231140,423.167694 
	C888.231140,439.339966 887.623230,455.174896 888.432190,470.937164 
	C889.030823,482.601349 895.452759,491.395416 906.726624,495.508698 
	C918.103333,499.659546 928.335449,497.310120 936.894165,488.503479 
	C937.838257,487.532043 938.874634,486.650208 940.530579,485.111298 
	C940.779419,489.295380 940.962158,492.368347 941.149048,495.510193 
	C945.777100,495.510193 950.028076,495.510193 954.520264,495.510193 
	C954.520264,471.217957 954.520264,447.282623 954.520264,423.131470 
	C949.905334,423.131470 945.309509,423.131470 940.345093,423.131470 
	C940.345093,425.090088 940.348389,426.735687 940.344604,428.381256 
	C940.317505,440.207703 940.419067,452.036285 940.223511,463.859985 
	C940.036194,475.189514 932.035156,483.625305 921.494446,483.993469 
	C910.728149,484.369476 903.575134,477.763550 902.273438,465.978180 
	C901.928101,462.851349 902.201416,459.656219 902.192078,455.495636 
M671.608765,415.500244 
	C671.608765,442.112823 671.608765,468.725372 671.608765,495.555603 
	C676.738770,495.555603 681.321228,495.555603 686.254395,495.555603 
	C686.254395,462.588745 686.254395,429.868042 686.254395,397.071991 
	C681.333435,397.071991 676.636536,397.071991 671.606812,397.071991 
	C671.606812,403.197845 671.606812,408.849365 671.608765,415.500244 
M1018.650879,495.753662 
	C1021.604553,495.753662 1024.558228,495.753662 1027.918701,495.753662 
	C1027.918701,493.589600 1027.916748,491.949738 1027.918945,490.309845 
	C1027.934570,478.821411 1027.767334,467.328979 1028.015503,455.845551 
	C1028.301758,442.600555 1037.203003,434.648102 1050.366577,435.428741 
	C1051.806519,435.514130 1053.255859,435.440247 1054.887207,435.440247 
	C1054.887207,430.839050 1054.887207,426.407715 1054.887207,421.861511 
	C1043.383545,419.806244 1034.742676,424.116943 1028.321533,433.943573 
	C1028.023560,433.551697 1027.725586,433.159790 1027.427612,432.767883 
	C1027.427612,429.655762 1027.427612,426.543610 1027.427612,423.195129 
	C1022.472290,423.195129 1017.936523,423.195129 1013.530640,423.195129 
	C1013.530640,447.465454 1013.530640,471.367035 1013.530640,495.498657 
	C1015.143372,495.594116 1016.440002,495.670837 1018.650879,495.753662 
M991.095398,446.500610 
	C991.095398,438.736603 991.095398,430.972595 991.095398,423.206207 
	C986.101135,423.206207 981.566284,423.206207 977.059204,423.206207 
	C977.059204,447.508453 977.059204,471.407776 977.059204,495.507080 
	C981.720764,495.507080 986.124512,495.507080 991.096191,495.507080 
	C991.096191,479.316864 991.096191,463.408569 991.095398,446.500610 
M992.168030,392.292877 
	C987.873230,387.752960 983.821777,386.925720 979.411072,389.688110 
	C974.908630,392.508026 973.102417,397.632080 974.995728,402.214081 
	C976.788757,406.553558 981.687317,408.982086 986.550476,407.942535 
	C993.059387,406.551178 995.629883,400.170227 992.168030,392.292877 
z"/>
<path fill="#18273A" opacity="1.000000" stroke="none" 
	d="
M845.437012,492.409668 
	C831.335266,502.173798 809.137512,496.936005 799.226990,480.330902 
	C786.015442,458.194885 796.821899,427.006592 822.432007,421.781830 
	C834.867798,419.244720 844.945374,422.989258 853.486694,434.115845 
	C853.708130,429.845734 853.870850,426.707825 854.051758,423.220032 
	C858.657715,423.220032 863.223206,423.220032 868.077271,423.220032 
	C868.077271,456.209991 868.077271,489.204376 868.077271,522.449463 
	C863.288940,522.449463 858.846985,522.449463 853.995972,522.449463 
	C853.995972,510.520020 853.995972,498.593445 853.995972,485.667023 
	C850.758606,488.224884 848.247009,490.209320 845.437012,492.409668 
M808.249146,461.149231 
	C809.296265,470.020691 812.589539,477.561005 821.123840,481.644531 
	C831.916138,486.808411 844.661255,483.446045 850.736084,474.032501 
	C857.370300,463.751892 855.582458,447.744995 846.714783,440.199646 
	C844.500366,438.315460 841.786133,436.719177 839.030945,435.819275 
	C822.408752,430.390320 808.642456,441.405731 808.249146,461.149231 
z"/>
<path fill="#18273A" opacity="1.000000" stroke="none" 
	d="
M1077.018311,489.958130 
	C1054.185913,471.853790 1058.113525,438.074371 1082.254517,425.217163 
	C1095.753418,418.027740 1112.738159,419.807495 1124.367432,429.578491 
	C1136.235962,439.550476 1140.993042,455.586426 1136.416870,470.197784 
	C1131.653320,485.408295 1118.776855,495.889679 1103.247192,497.182220 
	C1093.757324,497.972046 1085.088135,495.708771 1077.018311,489.958130 
M1080.829102,473.570251 
	C1088.607056,484.284912 1101.179810,487.086334 1111.982422,480.511871 
	C1122.636353,474.027771 1126.487793,458.673309 1120.413940,446.898834 
	C1114.997803,436.399414 1101.868774,431.611053 1090.884033,436.128754 
	C1077.286255,441.721100 1072.506226,458.486084 1080.829102,473.570251 
z"/>
<path fill="#18273A" opacity="1.000000" stroke="none" 
	d="
M763.438599,471.000061 
	C763.318359,464.015594 763.578369,457.496521 762.992126,451.054443 
	C762.054871,440.754395 755.965149,435.068329 746.285706,434.668243 
	C735.889587,434.238525 727.430420,440.157806 725.915161,449.911194 
	C724.927612,456.267883 725.187805,462.835083 725.100098,469.310822 
	C724.983215,477.943207 725.071289,486.578369 725.071289,495.510864 
	C720.171082,495.510864 715.742981,495.510864 710.880615,495.510864 
	C710.880615,471.426270 710.880615,447.413300 710.880615,423.091003 
	C715.368286,423.091003 719.802856,423.091003 724.599609,423.091003 
	C724.833557,425.991760 725.065308,428.865295 725.329590,432.141907 
	C726.340881,431.609192 727.045227,431.459198 727.389893,431.024200 
	C735.787109,420.426819 746.789612,418.821899 758.821045,422.593842 
	C770.458008,426.242126 776.587036,435.422180 777.288208,446.885254 
	C778.268799,462.917236 777.535583,479.054047 777.535583,495.471313 
	C772.898682,495.471313 768.504639,495.471313 763.439148,495.471313 
	C763.439148,487.361115 763.439148,479.430542 763.438599,471.000061 
z"/>
<path fill="#18273A" opacity="1.000000" stroke="none" 
	d="
M902.191406,455.994019 
	C902.201416,459.656219 901.928101,462.851349 902.273438,465.978180 
	C903.575134,477.763550 910.728149,484.369476 921.494446,483.993469 
	C932.035156,483.625305 940.036194,475.189514 940.223511,463.859985 
	C940.419067,452.036285 940.317505,440.207703 940.344604,428.381256 
	C940.348389,426.735687 940.345093,425.090088 940.345093,423.131470 
	C945.309509,423.131470 949.905334,423.131470 954.520264,423.131470 
	C954.520264,447.282623 954.520264,471.217957 954.520264,495.510193 
	C950.028076,495.510193 945.777100,495.510193 941.149048,495.510193 
	C940.962158,492.368347 940.779419,489.295380 940.530579,485.111298 
	C938.874634,486.650208 937.838257,487.532043 936.894165,488.503479 
	C928.335449,497.310120 918.103333,499.659546 906.726624,495.508698 
	C895.452759,491.395416 889.030823,482.601349 888.432190,470.937164 
	C887.623230,455.174896 888.231140,439.339966 888.231140,423.167694 
	C892.859497,423.167694 897.262024,423.167694 902.192078,423.167694 
	C902.192078,433.942322 902.192078,444.718964 902.191406,455.994019 
z"/>
<path fill="#3CBAB0" opacity="1.000000" stroke="none" 
	d="
M624.700378,463.028687 
	C623.088074,466.275452 621.643616,469.619110 619.834778,472.752472 
	C611.362122,487.429291 602.798157,502.053467 594.234375,516.677490 
	C593.571411,517.809692 592.657837,518.795227 591.243042,519.815552 
	C588.527222,517.118225 585.952759,514.699524 584.428711,511.739868 
	C581.112793,505.300262 575.464355,499.781342 576.084595,491.413177 
	C583.704285,477.983093 591.198242,464.861053 599.088501,451.796448 
	C601.339783,452.535828 603.246521,453.103790 605.040283,453.920074 
	C611.614014,456.911621 618.150085,459.985687 624.700378,463.028687 
z"/>
<path fill="#18273A" opacity="1.000000" stroke="none" 
	d="
M671.607788,415.000549 
	C671.606812,408.849365 671.606812,403.197845 671.606812,397.071991 
	C676.636536,397.071991 681.333435,397.071991 686.254395,397.071991 
	C686.254395,429.868042 686.254395,462.588745 686.254395,495.555603 
	C681.321228,495.555603 676.738770,495.555603 671.608765,495.555603 
	C671.608765,468.725372 671.608765,442.112823 671.607788,415.000549 
z"/>
<path fill="#18273A" opacity="1.000000" stroke="none" 
	d="
M1018.193787,495.750610 
	C1016.440002,495.670837 1015.143372,495.594116 1013.530640,495.498657 
	C1013.530640,471.367035 1013.530640,447.465454 1013.530640,423.195129 
	C1017.936523,423.195129 1022.472290,423.195129 1027.427612,423.195129 
	C1027.427612,426.543610 1027.427612,429.655762 1027.427612,432.767883 
	C1027.725586,433.159790 1028.023560,433.551697 1028.321533,433.943573 
	C1034.742676,424.116943 1043.383545,419.806244 1054.887207,421.861511 
	C1054.887207,426.407715 1054.887207,430.839050 1054.887207,435.440247 
	C1053.255859,435.440247 1051.806519,435.514130 1050.366577,435.428741 
	C1037.203003,434.648102 1028.301758,442.600555 1028.015503,455.845551 
	C1027.767334,467.328979 1027.934570,478.821411 1027.918945,490.309845 
	C1027.916748,491.949738 1027.918701,493.589600 1027.918701,495.753662 
	C1024.558228,495.753662 1021.604553,495.753662 1018.193787,495.750610 
z"/>
<path fill="#476275" opacity="1.000000" stroke="none" 
	d="
M483.874756,415.547668 
	C488.881195,406.272919 494.615906,397.305603 498.695984,387.639801 
	C503.065369,377.288666 510.713776,375.845062 520.634705,377.375732 
	C521.657959,379.304199 521.934631,381.034607 522.861267,382.282379 
	C528.147827,389.401062 529.921265,396.445709 523.259705,403.784851 
	C522.553162,404.563293 522.463806,405.901947 521.887573,407.265503 
	C520.669800,409.263763 519.672485,410.989441 518.631775,412.688477 
	C514.479797,419.466797 510.314301,426.236816 505.804535,432.954803 
	C498.261749,427.115662 491.068237,421.331635 483.874756,415.547668 
z"/>
<path fill="#476275" opacity="1.000000" stroke="none" 
	d="
M558.878235,377.070374 
	C567.290955,377.063019 575.704102,377.007294 584.115906,377.091339 
	C585.690491,377.107056 587.259521,377.682281 588.575500,378.449829 
	C586.493652,378.952362 584.655151,378.887573 582.843262,379.076752 
	C575.500000,379.843628 569.778564,386.471924 570.035583,393.819275 
	C570.307983,401.605988 576.406006,407.801941 583.977051,407.948303 
	C592.933167,408.121460 597.162598,402.393127 600.053833,395.014130 
	C602.987488,399.362701 606.059021,403.626312 608.808655,408.088287 
	C610.797302,411.315399 612.358582,414.805847 613.783569,418.617432 
	C610.348145,420.828552 607.154785,422.469482 604.150208,424.403656 
	C599.329712,427.506805 594.634155,430.804108 589.611938,433.830963 
	C587.092896,429.817108 584.319275,426.201233 582.703125,422.126282 
	C578.153809,410.655853 570.453979,404.901062 557.692627,406.633423 
	C556.107910,403.720398 554.874573,400.959290 553.141418,398.559052 
	C550.891602,395.443115 551.031860,392.739227 552.928284,389.463806 
	C555.217590,385.509857 556.921143,381.216705 558.878235,377.070374 
z"/>
<path fill="#70C5BE" opacity="1.000000" stroke="none" 
	d="
M575.958801,491.721252 
	C575.464355,499.781342 581.112793,505.300262 584.428711,511.739868 
	C585.952759,514.699524 588.527222,517.118225 590.943848,519.947327 
	C589.252319,521.003723 587.257263,522.622681 585.229736,522.664612 
	C574.581726,522.884705 563.925415,522.705811 552.742004,522.225464 
	C548.000488,514.237854 543.709534,506.732819 539.629333,499.114990 
	C538.505981,497.017670 538.011719,494.583405 537.680298,492.297974 
	C541.290894,492.285126 544.450684,492.317841 547.608948,492.263489 
	C557.059204,492.101044 566.508911,491.904480 575.958801,491.721252 
z"/>
<path fill="#18273A" opacity="1.000000" stroke="none" 
	d="
M991.095825,447.000458 
	C991.096191,463.408569 991.096191,479.316864 991.096191,495.507080 
	C986.124512,495.507080 981.720764,495.507080 977.059204,495.507080 
	C977.059204,471.407776 977.059204,447.508453 977.059204,423.206207 
	C981.566284,423.206207 986.101135,423.206207 991.095398,423.206207 
	C991.095398,430.972595 991.095398,438.736603 991.095825,447.000458 
z"/>
<path fill="#3C7D88" opacity="1.000000" stroke="none" 
	d="
M589.885803,434.019409 
	C594.634155,430.804108 599.329712,427.506805 604.150208,424.403656 
	C607.154785,422.469482 610.348145,420.828552 613.839050,418.977661 
	C619.135803,427.067078 623.932617,435.308929 629.009949,443.374237 
	C631.931213,448.014618 632.947693,452.305481 629.031128,456.905273 
	C627.559509,458.633606 626.554138,460.758911 625.018250,462.865967 
	C618.150085,459.985687 611.614014,456.911621 605.040283,453.920074 
	C603.246521,453.103790 601.339783,452.535828 599.049988,451.472412 
	C595.705383,445.400421 592.795593,439.709900 589.885803,434.019409 
z"/>
<path fill="#3CBAB0" opacity="1.000000" stroke="none" 
	d="
M504.891846,521.033508 
	C496.473297,506.645935 488.054749,492.258362 480.070984,477.468262 
	C490.519653,476.815765 500.533569,476.565765 510.806122,476.546265 
	C514.327209,481.973297 517.589722,487.169769 520.851196,492.718384 
	C517.702393,499.159027 514.686707,505.321075 511.355347,511.307495 
	C509.468414,514.698425 507.063477,517.801025 504.891846,521.033508 
z"/>
<path fill="#70C5BE" opacity="1.000000" stroke="none" 
	d="
M483.551056,415.706299 
	C491.068237,421.331635 498.261749,427.115662 505.802612,433.330872 
	C504.101135,437.636566 501.879303,441.432129 500.063385,445.412872 
	C498.819427,448.139862 498.140533,451.124603 496.729858,453.937317 
	C486.165680,453.925659 476.080688,453.970764 465.995667,454.015900 
	C465.693359,451.646179 464.337280,448.705872 465.260986,446.999969 
	C470.964325,436.467072 477.181183,426.212219 483.551056,415.706299 
z"/>
<path fill="#476275" opacity="1.000000" stroke="none" 
	d="
M505.056824,521.391907 
	C507.063477,517.801025 509.468414,514.698425 511.355347,511.307495 
	C514.686707,505.321075 517.702393,499.159027 521.322327,492.629852 
	C526.939209,492.227386 532.084045,492.265564 537.228821,492.303741 
	C538.011719,494.583405 538.505981,497.017670 539.629333,499.114990 
	C543.709534,506.732819 548.000488,514.237854 552.314941,522.110107 
	C537.400513,522.555237 522.383118,522.690369 507.365448,522.751282 
	C506.652283,522.754150 505.936432,522.098999 505.056824,521.391907 
z"/>
<path fill="#3CBAB0" opacity="1.000000" stroke="none" 
	d="
M558.420654,377.049103 
	C556.921143,381.216705 555.217590,385.509857 552.928284,389.463806 
	C551.031860,392.739227 550.891602,395.443115 553.141418,398.559052 
	C554.874573,400.959290 556.107910,403.720398 557.245239,406.692993 
	C545.314026,407.036865 533.701111,407.008789 522.088196,406.980713 
	C522.463806,405.901947 522.553162,404.563293 523.259705,403.784851 
	C529.921265,396.445709 528.147827,389.401062 522.861267,382.282379 
	C521.934631,381.034607 521.657959,379.304199 521.107239,377.429047 
	C533.409912,377.050232 545.686523,377.039032 558.420654,377.049103 
z"/>
<path fill="#3C7D88" opacity="1.000000" stroke="none" 
	d="
M466.036560,454.379700 
	C476.080688,453.970764 486.165680,453.925659 497.050842,453.984863 
	C502.083160,461.498077 506.315338,468.906921 510.547516,476.315735 
	C500.533569,476.565765 490.519653,476.815765 479.992126,477.092529 
	C475.011536,469.660675 470.544525,462.202118 466.036560,454.379700 
z"/>
<path fill="#3CBAB0" opacity="1.000000" stroke="none" 
	d="
M599.999573,394.633270 
	C597.162598,402.393127 592.933167,408.121460 583.977051,407.948303 
	C576.406006,407.801941 570.307983,401.605988 570.035583,393.819275 
	C569.778564,386.471924 575.500000,379.843628 582.843262,379.076752 
	C584.655151,378.887573 586.493652,378.952362 588.771606,378.788696 
	C595.306580,382.141449 598.602539,387.524658 599.999573,394.633270 
z"/>
<path fill="#18273A" opacity="1.000000" stroke="none" 
	d="
M992.396118,392.579102 
	C995.629883,400.170227 993.059387,406.551178 986.550476,407.942535 
	C981.687317,408.982086 976.788757,406.553558 974.995728,402.214081 
	C973.102417,397.632080 974.908630,392.508026 979.411072,389.688110 
	C983.821777,386.925720 987.873230,387.752960 992.396118,392.579102 
z"/>

</svg>