<svg version="1.1" xmlns="http://www.w3.org/2000/svg" viewBox="462 373 175 155">
<!-- Hexagon Icon Only -->
<path fill="#3CBAB0" opacity="1.000000" stroke="none" 
	d="
M624.700378,463.028687 
	C623.088074,466.275452 621.643616,469.619110 619.834778,472.752472 
	C611.362122,487.429291 602.798157,502.053467 594.234375,516.677490 
	C593.571411,517.809692 592.657837,518.795227 591.243042,519.815552 
	C588.527222,517.118225 585.952759,514.699524 584.428711,511.739868 
	C581.112793,505.300262 575.464355,499.781342 576.084595,491.413177 
	C583.704285,477.983093 591.198242,464.861053 599.088501,451.796448 
	C601.339783,452.535828 603.246521,453.103790 605.040283,453.920074 
	C611.614014,456.911621 618.150085,459.985687 624.700378,463.028687 
z"/>
<path fill="#476275" opacity="1.000000" stroke="none" 
	d="
M483.874756,415.547668 
	C488.881195,406.272919 494.615906,397.305603 498.695984,387.639801 
	C503.065369,377.288666 510.713776,375.845062 520.634705,377.375732 
	C521.657959,379.304199 521.934631,381.034607 522.861267,382.282379 
	C528.147827,389.401062 529.921265,396.445709 523.259705,403.784851 
	C522.553162,404.563293 522.463806,405.901947 521.887573,407.265503 
	C520.669800,409.263763 519.672485,410.989441 518.631775,412.688477 
	C514.479797,419.466797 510.314301,426.236816 505.804535,432.954803 
	C498.261749,427.115662 491.068237,421.331635 483.874756,415.547668 
z"/>
<path fill="#476275" opacity="1.000000" stroke="none" 
	d="
M558.878235,377.070374 
	C567.290955,377.063019 575.704102,377.007294 584.115906,377.091339 
	C585.690491,377.107056 587.259521,377.682281 588.575500,378.449829 
	C586.493652,378.952362 584.655151,378.887573 582.843262,379.076752 
	C575.500000,379.843628 569.778564,386.471924 570.035583,393.819275 
	C570.307983,401.605988 576.406006,407.801941 583.977051,407.948303 
	C592.933167,408.121460 597.162598,402.393127 600.053833,395.014130 
	C602.987488,399.362701 606.059021,403.626312 608.808655,408.088287 
	C610.797302,411.315399 612.358582,414.805847 613.783569,418.617432 
	C610.348145,420.828552 607.154785,422.469482 604.150208,424.403656 
	C599.329712,427.506805 594.634155,430.804108 589.611938,433.830963 
	C587.092896,429.817108 584.319275,426.201233 582.703125,422.126282 
	C578.153809,410.655853 570.453979,404.901062 557.692627,406.633423 
	C556.107910,403.720398 554.874573,400.959290 553.141418,398.559052 
	C550.891602,395.443115 551.031860,392.739227 552.928284,389.463806 
	C555.217590,385.509857 556.921143,381.216705 558.878235,377.070374 
z"/>
<path fill="#70C5BE" opacity="1.000000" stroke="none" 
	d="
M575.958801,491.721252 
	C575.464355,499.781342 581.112793,505.300262 584.428711,511.739868 
	C585.952759,514.699524 588.527222,517.118225 590.943848,519.947327 
	C589.252319,521.003723 587.257263,522.622681 585.229736,522.664612 
	C574.581726,522.884705 563.925415,522.705811 552.742004,522.225464 
	C548.000488,514.237854 543.709534,506.732819 539.629333,499.114990 
	C538.505981,497.017670 538.011719,494.583405 537.680298,492.297974 
	C541.290894,492.285126 544.450684,492.317841 547.608948,492.263489 
	C557.059204,492.101044 566.508911,491.904480 575.958801,491.721252 
z"/>
<path fill="#3C7D88" opacity="1.000000" stroke="none" 
	d="
M589.885803,434.019409 
	C594.634155,430.804108 599.329712,427.506805 604.150208,424.403656 
	C607.154785,422.469482 610.348145,420.828552 613.839050,418.977661 
	C619.135803,427.067078 623.932617,435.308929 629.009949,443.374237 
	C631.931213,448.014618 632.947693,452.305481 629.031128,456.905273 
	C627.559509,458.633606 626.554138,460.758911 625.018250,462.865967 
	C618.150085,459.985687 611.614014,456.911621 605.040283,453.920074 
	C603.246521,453.103790 601.339783,452.535828 599.049988,451.472412 
	C595.705383,445.400421 592.795593,439.709900 589.885803,434.019409 
z"/>
<path fill="#3CBAB0" opacity="1.000000" stroke="none" 
	d="
M504.891846,521.033508 
	C496.473297,506.645935 488.054749,492.258362 480.070984,477.468262 
	C490.519653,476.815765 500.533569,476.565765 510.806122,476.546265 
	C514.327209,481.973297 517.589722,487.169769 520.851196,492.718384 
	C517.702393,499.159027 514.686707,505.321075 511.355347,511.307495 
	C509.468414,514.698425 507.063477,517.801025 504.891846,521.033508 
z"/>
<path fill="#70C5BE" opacity="1.000000" stroke="none" 
	d="
M483.551056,415.706299 
	C491.068237,421.331635 498.261749,427.115662 505.802612,433.330872 
	C504.101135,437.636566 501.879303,441.432129 500.063385,445.412872 
	C498.819427,448.139862 498.140533,451.124603 496.729858,453.937317 
	C486.165680,453.925659 476.080688,453.970764 465.995667,454.015900 
	C465.693359,451.646179 464.337280,448.705872 465.260986,446.999969 
	C470.964325,436.467072 477.181183,426.212219 483.551056,415.706299 
z"/>
<path fill="#476275" opacity="1.000000" stroke="none" 
	d="
M505.056824,521.391907 
	C507.063477,517.801025 509.468414,514.698425 511.355347,511.307495 
	C514.686707,505.321075 517.702393,499.159027 521.322327,492.629852 
	C526.939209,492.227386 532.084045,492.265564 537.228821,492.303741 
	C538.011719,494.583405 538.505981,497.017670 539.629333,499.114990 
	C543.709534,506.732819 548.000488,514.237854 552.314941,522.110107 
	C537.400513,522.555237 522.383118,522.690369 507.365448,522.751282 
	C506.652283,522.754150 505.936432,522.098999 505.056824,521.391907 
z"/>
<path fill="#3CBAB0" opacity="1.000000" stroke="none" 
	d="
M558.420654,377.049103 
	C556.921143,381.216705 555.217590,385.509857 552.928284,389.463806 
	C551.031860,392.739227 550.891602,395.443115 553.141418,398.559052 
	C554.874573,400.959290 556.107910,403.720398 557.245239,406.692993 
	C545.314026,407.036865 533.701111,407.008789 522.088196,406.980713 
	C522.463806,405.901947 522.553162,404.563293 523.259705,403.784851 
	C529.921265,396.445709 528.147827,389.401062 522.861267,382.282379 
	C521.934631,381.034607 521.657959,379.304199 521.107239,377.429047 
	C533.409912,377.050232 545.686523,377.039032 558.420654,377.049103 
z"/>
<path fill="#3C7D88" opacity="1.000000" stroke="none" 
	d="
M466.036560,454.379700 
	C476.080688,453.970764 486.165680,453.925659 497.050842,453.984863 
	C502.083160,461.498077 506.315338,468.906921 510.547516,476.315735 
	C500.533569,476.565765 490.519653,476.815765 479.992126,477.092529 
	C475.011536,469.660675 470.544525,462.202118 466.036560,454.379700 
z"/>
<path fill="#3CBAB0" opacity="1.000000" stroke="none" 
	d="
M599.999573,394.633270 
	C597.162598,402.393127 592.933167,408.121460 583.977051,407.948303 
	C576.406006,407.801941 570.307983,401.605988 570.035583,393.819275 
	C569.778564,386.471924 575.500000,379.843628 582.843262,379.076752 
	C584.655151,378.887573 586.493652,378.952362 588.771606,378.788696 
	C595.306580,382.141449 598.602539,387.524658 599.999573,394.633270 
z"/>
</svg>
